{
	"asset":{
		"generator":"Khronos glTF Blender I/O v4.1.62",
		"version":"2.0"
	},
	"scene":0,
	"scenes":[
		{
			"name":"Scene",
			"nodes":[
				57
			]
		}
	],
	"nodes":[
		{
			"name":"head_jnt",
			"rotation":[
				-0.052720244973897934,
				7.949149253064485e-15,
				-1.2569485896563037e-08,
				0.9986093640327454
			],
			"translation":[
				-5.471813781021467e-16,
				0.05922326073050499,
				6.51925802230835e-09
			]
		},
		{
			"children":[
				0
			],
			"name":"neck_01_jnt",
			"rotation":[
				1.043081283569336e-07,
				-1.3489209749195652e-14,
				2.3956233047642272e-14,
				1
			],
			"translation":[
				-2.5572242314962548e-15,
				0.059223394840955734,
				1.5832483768463135e-08
			]
		},
		{
			"children":[
				1
			],
			"name":"neck_00_jnt",
			"rotation":[
				0.105072021484375,
				-4.465610637483875e-15,
				2.5051122065633535e-08,
				0.994464635848999
			],
			"translation":[
				-4.345221844690621e-15,
				0.28612208366394043,
				9.313225746154785e-09
			]
		},
		{
			"name":"L_pinky_03_jnt",
			"rotation":[
				-6.803653604947613e-07,
				4.893038862974208e-07,
				-0.038324836641550064,
				0.9992653131484985
			],
			"scale":[
				0.9999999403953552,
				0.9999998807907104,
				1
			],
			"translation":[
				6.309710443019867e-08,
				0.01907132938504219,
				7.450580596923828e-09
			]
		},
		{
			"children":[
				3
			],
			"name":"L_pinky_02_jnt",
			"rotation":[
				2.8212059532961575e-07,
				3.931471837859135e-06,
				-0.07807573676109314,
				0.9969474077224731
			],
			"translation":[
				5.3318217396736145e-08,
				0.03803572058677673,
				3.725290298461914e-09
			]
		},
		{
			"children":[
				4
			],
			"name":"L_pinky_01_jnt",
			"rotation":[
				-0.21790993213653564,
				-0.09888310730457306,
				-0.06666307151317596,
				0.9686554670333862
			],
			"translation":[
				0.002001376822590828,
				0.08905405551195145,
				-0.03410748019814491
			]
		},
		{
			"name":"L_ring_03_jnt",
			"rotation":[
				0.011084813624620438,
				0.0034187878482043743,
				-0.061211857944726944,
				0.9980573654174805
			],
			"scale":[
				1,
				0.9999998807907104,
				1
			],
			"translation":[
				-1.7229467630386353e-08,
				0.030948594212532043,
				-7.450580596923828e-09
			]
		},
		{
			"children":[
				6
			],
			"name":"L_ring_02_jnt",
			"rotation":[
				-0.004497193731367588,
				0.007014145143330097,
				-0.06863132864236832,
				0.9976072907447815
			],
			"scale":[
				0.9999998807907104,
				1,
				1
			],
			"translation":[
				1.5844125300645828e-07,
				0.0503731332719326,
				0
			]
		},
		{
			"children":[
				7
			],
			"name":"L_ring_01_jnt",
			"rotation":[
				-0.0769151896238327,
				-0.10623789578676224,
				-0.028417857363820076,
				0.9909541010856628
			],
			"scale":[
				1,
				1,
				0.9999999403953552
			],
			"translation":[
				-0.0016235951334238052,
				0.09397243708372116,
				-0.01608353480696678
			]
		},
		{
			"name":"L_middle_03_jnt",
			"rotation":[
				-4.0816004798216454e-07,
				1.0073539442601032e-06,
				-0.034341391175985336,
				0.9994101524353027
			],
			"scale":[
				0.9999998807907104,
				1,
				1
			],
			"translation":[
				8.195638656616211e-08,
				0.03712652623653412,
				2.2351741790771484e-08
			]
		},
		{
			"children":[
				9
			],
			"name":"L_middle_02_jnt",
			"rotation":[
				6.028960228832148e-07,
				-6.066262585591176e-07,
				-0.05137023702263832,
				0.9986796975135803
			],
			"scale":[
				0.9999999403953552,
				0.9999999403953552,
				1
			],
			"translation":[
				-6.705522537231445e-08,
				0.056295450776815414,
				-2.9802322387695312e-08
			]
		},
		{
			"children":[
				10
			],
			"name":"L_middle_01_jnt",
			"rotation":[
				0.022228049114346504,
				0.0141060259193182,
				-0.02477358654141426,
				0.9993464350700378
			],
			"scale":[
				1,
				0.9999999403953552,
				1
			],
			"translation":[
				-0.00032523833215236664,
				0.09321658313274384,
				0.011563505977392197
			]
		},
		{
			"name":"L_index_03_jnt",
			"rotation":[
				2.235184837218185e-08,
				7.152591479098191e-07,
				-0.0030733791645616293,
				0.9999952912330627
			],
			"translation":[
				4.0978193283081055e-08,
				0.033785656094551086,
				-2.8870999813079834e-08
			]
		},
		{
			"children":[
				12
			],
			"name":"L_index_02_jnt",
			"rotation":[
				8.400459705626417e-08,
				7.205727570180898e-07,
				-0.06643197685480118,
				0.9977909922599792
			],
			"scale":[
				1,
				1.0000001192092896,
				1.0000001192092896
			],
			"translation":[
				2.60770320892334e-08,
				0.053706035017967224,
				1.3969838619232178e-09
			]
		},
		{
			"children":[
				13
			],
			"name":"L_index_01_jnt",
			"rotation":[
				0.1245020255446434,
				-0.003100051311776042,
				-0.00916599202901125,
				0.9921721816062927
			],
			"translation":[
				-0.0006243493407964706,
				0.08704184740781784,
				0.03515883535146713
			]
		},
		{
			"name":"L_thumb_03_jnt",
			"rotation":[
				-3.4281779903722054e-07,
				-1.2795813972843462e-06,
				-0.0393669418990612,
				0.999224841594696
			],
			"scale":[
				1,
				1,
				1.0000001192092896
			],
			"translation":[
				-2.9802322387695312e-08,
				0.030706144869327545,
				7.177004590630531e-08
			]
		},
		{
			"children":[
				15
			],
			"name":"L_thumb_02_jnt",
			"rotation":[
				-0.07848522067070007,
				0.04023904353380203,
				-0.14089834690093994,
				0.9860875010490417
			],
			"scale":[
				1,
				0.9999998807907104,
				0.9999999403953552
			],
			"translation":[
				4.470348358154297e-08,
				0.041044436395168304,
				-7.171183824539185e-08
			]
		},
		{
			"children":[
				16
			],
			"name":"L_thumb_01_jnt",
			"rotation":[
				0.4393868148326874,
				0.41226205229759216,
				0.017666898667812347,
				0.7979142665863037
			],
			"scale":[
				0.9999999403953552,
				1,
				1
			],
			"translation":[
				0.0179562009871006,
				0.033136170357465744,
				0.03377659246325493
			]
		},
		{
			"children":[
				5,
				8,
				11,
				14,
				17
			],
			"name":"L_palm_jnt",
			"rotation":[
				-0.0024670520797371864,
				0.03218860924243927,
				-0.0763772577047348,
				0.996556282043457
			],
			"translation":[
				1.341104507446289e-07,
				0.29862087965011597,
				-1.4202669262886047e-08
			]
		},
		{
			"children":[
				18
			],
			"name":"L_foreArm_jnt",
			"rotation":[
				0.11783312261104584,
				0.017401793971657753,
				0.015158934518694878,
				0.9927651882171631
			],
			"translation":[
				9.566792869009078e-08,
				0.28897738456726074,
				-1.6298145055770874e-09
			]
		},
		{
			"children":[
				19
			],
			"name":"L_upperArm_jnt",
			"rotation":[
				0.054867759346961975,
				0.018536048009991646,
				-0.27624064683914185,
				0.9593420028686523
			],
			"scale":[
				1,
				1,
				1.0000001192092896
			],
			"translation":[
				2.2272070054896176e-07,
				0.14176584780216217,
				9.402167052030563e-06
			]
		},
		{
			"children":[
				20
			],
			"name":"L_shoulder_jnt",
			"rotation":[
				0.024558071047067642,
				0.045570358633995056,
				-0.7055755257606506,
				0.706741452217102
			],
			"translation":[
				0.0443853884935379,
				0.19212543964385986,
				-0.009910189546644688
			]
		},
		{
			"name":"R_pinky_03_jnt",
			"rotation":[
				-7.055296009639278e-07,
				-4.967599238625553e-07,
				0.03832486644387245,
				0.9992653131484985
			],
			"scale":[
				0.9999999403953552,
				0.9999999403953552,
				1
			],
			"translation":[
				-4.6566128730773926e-09,
				0.019071388989686966,
				1.862645149230957e-08
			]
		},
		{
			"children":[
				22
			],
			"name":"R_pinky_02_jnt",
			"rotation":[
				3.1761919672135264e-07,
				-3.918860784324352e-06,
				0.07807573676109314,
				0.9969474673271179
			],
			"scale":[
				0.9999999403953552,
				1,
				1.0000001192092896
			],
			"translation":[
				7.275957614183426e-09,
				0.038035713136196136,
				-3.725290298461914e-09
			]
		},
		{
			"children":[
				23
			],
			"name":"R_pinky_01_jnt",
			"rotation":[
				-0.21790997684001923,
				0.09888309985399246,
				0.06666299700737,
				0.9686554670333862
			],
			"scale":[
				1,
				1,
				1.0000001192092896
			],
			"translation":[
				-0.0020015276968479156,
				0.0890539363026619,
				-0.03410749509930611
			]
		},
		{
			"name":"R_ring_03_jnt",
			"rotation":[
				0.011084815487265587,
				-0.0034187918063253164,
				0.061211906373500824,
				0.9980573654174805
			],
			"translation":[
				1.5832483768463135e-08,
				0.030948620289564133,
				1.4901161193847656e-08
			]
		},
		{
			"children":[
				25
			],
			"name":"R_ring_02_jnt",
			"rotation":[
				-0.004497198387980461,
				-0.007014136295765638,
				0.06863134354352951,
				0.9976072907447815
			],
			"scale":[
				1,
				0.9999998211860657,
				0.9999999403953552
			],
			"translation":[
				-2.166489139199257e-07,
				0.0503731295466423,
				0
			]
		},
		{
			"children":[
				26
			],
			"name":"R_ring_01_jnt",
			"rotation":[
				-0.0769152119755745,
				0.10623788833618164,
				0.028417788445949554,
				0.9909541010856628
			],
			"scale":[
				0.9999999403953552,
				1,
				0.9999999403953552
			],
			"translation":[
				0.0016234442591667175,
				0.09397232532501221,
				-0.01608356460928917
			]
		},
		{
			"name":"R_middle_03_jnt",
			"rotation":[
				-4.230699062190979e-07,
				-1.003160377877066e-06,
				0.03434135764837265,
				0.9994102120399475
			],
			"scale":[
				0.9999999403953552,
				1.0000001192092896,
				1.0000001192092896
			],
			"translation":[
				-1.4901161193847656e-08,
				0.037126485258340836,
				-2.2351741790771484e-08
			]
		},
		{
			"children":[
				28
			],
			"name":"R_middle_02_jnt",
			"rotation":[
				6.429958716580586e-07,
				6.131541567810928e-07,
				0.05137023329734802,
				0.9986796975135803
			],
			"scale":[
				0.9999999403953552,
				1,
				1
			],
			"translation":[
				-1.341104507446289e-07,
				0.05629551783204079,
				7.450580596923828e-09
			]
		},
		{
			"children":[
				29
			],
			"name":"R_middle_01_jnt",
			"rotation":[
				0.022228000685572624,
				-0.014106056652963161,
				0.02477353811264038,
				0.9993464350700378
			],
			"scale":[
				0.9999999403953552,
				1,
				1
			],
			"translation":[
				0.00032508745789527893,
				0.09321640431880951,
				0.011563502252101898
			]
		},
		{
			"name":"R_index_03_jnt",
			"rotation":[
				1.4901230471764393e-08,
				-7.040832201710145e-07,
				0.003073447849601507,
				0.9999952912330627
			],
			"scale":[
				1,
				1.0000001192092896,
				1.0000001192092896
			],
			"translation":[
				-4.0978193283081055e-08,
				0.03378558158874512,
				-5.774199962615967e-08
			]
		},
		{
			"children":[
				31
			],
			"name":"R_index_02_jnt",
			"rotation":[
				6.347014647190008e-08,
				-7.3924059051933e-07,
				0.0664319172501564,
				0.9977909922599792
			],
			"scale":[
				0.9999999403953552,
				0.9999999403953552,
				1
			],
			"translation":[
				-2.2351741790771484e-08,
				0.05370604991912842,
				-2.7939677238464355e-08
			]
		},
		{
			"children":[
				32
			],
			"name":"R_index_01_jnt",
			"rotation":[
				0.12450201064348221,
				0.003100030357018113,
				0.00916594173759222,
				0.9921721816062927
			],
			"scale":[
				1,
				1.0000001192092896,
				0.9999999403953552
			],
			"translation":[
				0.0006241984665393829,
				0.08704167604446411,
				0.035158827900886536
			]
		},
		{
			"name":"R_thumb_03_jnt",
			"rotation":[
				-3.608179497405217e-07,
				1.27923192394519e-06,
				0.03936681151390076,
				0.999224841594696
			],
			"scale":[
				0.9999999403953552,
				1,
				1
			],
			"translation":[
				0,
				0.030706070363521576,
				-8.731149137020111e-09
			]
		},
		{
			"children":[
				34
			],
			"name":"R_thumb_02_jnt",
			"rotation":[
				-0.07848511636257172,
				-0.04023905470967293,
				0.14089840650558472,
				0.9860875010490417
			],
			"scale":[
				0.9999999403953552,
				1,
				1
			],
			"translation":[
				-8.195638656616211e-08,
				0.04104439541697502,
				9.313225746154785e-10
			]
		},
		{
			"children":[
				35
			],
			"name":"R_thumb_01_jnt",
			"rotation":[
				0.43938666582107544,
				-0.4122620224952698,
				-0.017666999250650406,
				0.7979143261909485
			],
			"scale":[
				0.9999999403953552,
				0.9999999403953552,
				0.9999999403953552
			],
			"translation":[
				-0.01795635186135769,
				0.03313605859875679,
				0.03377659246325493
			]
		},
		{
			"children":[
				24,
				27,
				30,
				33,
				36
			],
			"name":"R_palm_jnt",
			"rotation":[
				-0.0024670513812452555,
				-0.03218858689069748,
				0.07637728005647659,
				0.996556282043457
			],
			"scale":[
				0.9999999403953552,
				0.9999999403953552,
				0.9999999403953552
			],
			"translation":[
				-1.3969838619232178e-08,
				0.29862087965011597,
				9.313225746154785e-10
			]
		},
		{
			"children":[
				37
			],
			"name":"R_foreArm_jnt",
			"rotation":[
				0.11783313751220703,
				-0.01740180514752865,
				-0.015158935450017452,
				0.9927651882171631
			],
			"scale":[
				0.9999998807907104,
				0.9999999403953552,
				1.0000001192092896
			],
			"translation":[
				-6.58710632706061e-08,
				0.28897741436958313,
				6.984919309616089e-10
			]
		},
		{
			"children":[
				38
			],
			"name":"R_upperArm_jnt",
			"rotation":[
				0.054867759346961975,
				-0.018536048009991646,
				0.27624067664146423,
				0.9593419432640076
			],
			"scale":[
				1.0000001192092896,
				1,
				1.0000001192092896
			],
			"translation":[
				-2.227934601251036e-07,
				0.14176590740680695,
				9.399838745594025e-06
			]
		},
		{
			"children":[
				39
			],
			"name":"R_shoulder_jnt",
			"rotation":[
				0.02455790713429451,
				-0.04557052254676819,
				0.7055755853652954,
				0.7067413926124573
			],
			"scale":[
				1,
				0.9999999403953552,
				1
			],
			"translation":[
				-0.044385381042957306,
				0.19212543964385986,
				-0.00991021003574133
			]
		},
		{
			"children":[
				2,
				21,
				40
			],
			"name":"spine_03_jnt",
			"rotation":[
				-0.052497588098049164,
				1.0672857386827099e-14,
				-1.2516399472417561e-08,
				0.9986210465431213
			],
			"translation":[
				3.150475519841326e-17,
				0.07198536396026611,
				9.313225746154785e-10
			]
		},
		{
			"children":[
				41
			],
			"name":"spine_02_jnt",
			"rotation":[
				-7.105417193205635e-15,
				7.105427357601002e-15,
				3.282252670610414e-21,
				1
			],
			"translation":[
				3.1505294520172645e-17,
				0.06698167324066162,
				9.313225746154785e-10
			]
		},
		{
			"children":[
				42
			],
			"name":"spine_01_jnt",
			"rotation":[
				-1.4901168299275014e-08,
				2.1316282072803006e-14,
				3.55271706693229e-15,
				1
			],
			"translation":[
				1.003126296356691e-16,
				0.06471705436706543,
				1.2199237175991584e-09
			]
		},
		{
			"children":[
				43
			],
			"name":"spine_00_jnt",
			"rotation":[
				-0.18060244619846344,
				-1.1724897319709271e-07,
				-6.458846257828554e-08,
				0.9835562109947205
			],
			"translation":[
				1.021405182655144e-14,
				0.013583165593445301,
				-1.6763806343078613e-08
			]
		},
		{
			"name":"L_ball_jnt",
			"rotation":[
				0.21386535465717316,
				7.019873748959071e-08,
				0.012857595458626747,
				0.9767785668373108
			],
			"scale":[
				0.9999999403953552,
				1,
				1
			],
			"translation":[
				-6.28642737865448e-09,
				0.16124200820922852,
				1.0710209608078003e-08
			]
		},
		{
			"children":[
				45
			],
			"name":"L_foot_jnt",
			"rotation":[
				0.5786195993423462,
				0.024189895018935204,
				0.01758234016597271,
				0.8150491714477539
			],
			"scale":[
				1,
				0.9999999403953552,
				1
			],
			"translation":[
				-1.0848907550098374e-08,
				0.47683149576187134,
				-3.987224772572517e-09
			]
		},
		{
			"children":[
				46
			],
			"name":"L_lowerLeg_jnt",
			"rotation":[
				-0.041635092347860336,
				1.1900210949988832e-07,
				-2.9431525035761297e-05,
				0.9991328716278076
			],
			"scale":[
				1,
				1,
				1.0000001192092896
			],
			"translation":[
				5.30508259544149e-09,
				0.46841728687286377,
				1.0186340659856796e-10
			]
		},
		{
			"children":[
				47
			],
			"name":"L_upperLeg_jnt",
			"rotation":[
				-0.006242768839001656,
				0.0003533294366206974,
				-2.205797045462532e-06,
				0.9999805092811584
			],
			"scale":[
				1,
				0.9999999403953552,
				0.9999999403953552
			],
			"translation":[
				-0.09416300058364868,
				0.06568074226379395,
				0.0011370218126103282
			]
		},
		{
			"name":"R_ball_jnt",
			"rotation":[
				0.21386535465717316,
				-7.019873748959071e-08,
				-0.012857595458626747,
				0.9767785668373108
			],
			"scale":[
				0.9999999403953552,
				1,
				1
			],
			"translation":[
				6.28642737865448e-09,
				0.16124200820922852,
				1.0710209608078003e-08
			]
		},
		{
			"children":[
				49
			],
			"name":"R_foot_jnt",
			"rotation":[
				0.5786195993423462,
				-0.024189895018935204,
				-0.01758234016597271,
				0.8150491714477539
			],
			"scale":[
				1,
				0.9999999403953552,
				1
			],
			"translation":[
				1.085072653950192e-08,
				0.47683149576187134,
				-3.979948814958334e-09
			]
		},
		{
			"children":[
				50
			],
			"name":"R_lowerLeg_jnt",
			"rotation":[
				-0.041635092347860336,
				-1.189061862305607e-07,
				2.9430435461108573e-05,
				0.9991328716278076
			],
			"scale":[
				1,
				1,
				1.0000001192092896
			],
			"translation":[
				-6.548361852765083e-09,
				0.46841728687286377,
				9.458744898438454e-11
			]
		},
		{
			"children":[
				51
			],
			"name":"R_upperLeg_jnt",
			"rotation":[
				-0.006242768839001656,
				-0.0003534168645273894,
				2.206342287536245e-06,
				0.9999805092811584
			],
			"scale":[
				1,
				0.9999999403953552,
				0.9999999403953552
			],
			"translation":[
				0.09416300058364868,
				0.06568074226379395,
				0.0011370383435860276
			]
		},
		{
			"children":[
				48,
				52
			],
			"name":"pelvis_jnt",
			"rotation":[
				-2.7749061359827465e-07,
				0.18060240149497986,
				0.9835562109947205,
				3.5164617884220206e-08
			],
			"scale":[
				1,
				0.9999999403953552,
				0.9999996423721313
			],
			"translation":[
				-6.801063268113694e-09,
				-0.02394511178135872,
				0.01426289789378643
			]
		},
		{
			"children":[
				44,
				53
			],
			"name":"cog_jnt",
			"rotation":[
				0.8231844305992126,
				1.353678555915394e-07,
				1.9626246228199307e-07,
				0.5677741169929504
			],
			"scale":[
				1,
				0.9999999403953552,
				0.9999998211860657
			],
			"translation":[
				0,
				-0.007639378309249878,
				1.1316519975662231
			]
		},
		{
			"children":[
				54
			],
			"name":"root_jnt",
			"rotation":[
				-0.7071067690849304,
				0,
				0,
				0.7071067690849304
			]
		},
		{
			"mesh":0,
			"name":"puppet_geo",
			"skin":0
		},
		{
			"children":[
				56,
				55
			],
			"name":"Puppet_Armature"
		}
	],
	"meshes":[
		{
			"name":"puppet_mesh",
			"primitives":[
				{
					"attributes":{
						"POSITION":0,
						"NORMAL":1,
						"TEXCOORD_0":2,
						"JOINTS_0":3,
						"WEIGHTS_0":4
					},
					"indices":5
				}
			]
		}
	],
	"skins":[
		{
			"inverseBindMatrices":6,
			"joints":[
				55,
				54,
				44,
				43,
				42,
				41,
				2,
				1,
				0,
				21,
				20,
				19,
				18,
				5,
				4,
				3,
				8,
				7,
				6,
				11,
				10,
				9,
				14,
				13,
				12,
				17,
				16,
				15,
				40,
				39,
				38,
				37,
				24,
				23,
				22,
				27,
				26,
				25,
				30,
				29,
				28,
				33,
				32,
				31,
				36,
				35,
				34,
				53,
				48,
				47,
				46,
				45,
				52,
				51,
				50,
				49
			],
			"name":"Puppet_Armature"
		}
	],
	"accessors":[
		{
			"bufferView":0,
			"componentType":5126,
			"count":9341,
			"max":[
				0.8248829245567322,
				1.9330499172210693,
				0.20993947982788086
			],
			"min":[
				-0.8248829245567322,
				5.539253056241478e-09,
				-0.13569849729537964
			],
			"type":"VEC3"
		},
		{
			"bufferView":1,
			"componentType":5126,
			"count":9341,
			"type":"VEC3"
		},
		{
			"bufferView":2,
			"componentType":5126,
			"count":9341,
			"type":"VEC2"
		},
		{
			"bufferView":3,
			"componentType":5121,
			"count":9341,
			"type":"VEC4"
		},
		{
			"bufferView":4,
			"componentType":5126,
			"count":9341,
			"type":"VEC4"
		},
		{
			"bufferView":5,
			"componentType":5123,
			"count":38322,
			"type":"SCALAR"
		},
		{
			"bufferView":6,
			"componentType":5126,
			"count":56,
			"type":"MAT4"
		}
	],
	"bufferViews":[
		{
			"buffer":0,
			"byteLength":112092,
			"byteOffset":0,
			"target":34962
		},
		{
			"buffer":0,
			"byteLength":112092,
			"byteOffset":112092,
			"target":34962
		},
		{
			"buffer":0,
			"byteLength":74728,
			"byteOffset":224184,
			"target":34962
		},
		{
			"buffer":0,
			"byteLength":37364,
			"byteOffset":298912,
			"target":34962
		},
		{
			"buffer":0,
			"byteLength":149456,
			"byteOffset":336276,
			"target":34962
		},
		{
			"buffer":0,
			"byteLength":76644,
			"byteOffset":485732,
			"target":34963
		},
		{
			"buffer":0,
			"byteLength":3584,
			"byteOffset":562376
		}
	],
	"buffers":[
		{
			"byteLength":565960,
			"uri":"puppet_skeleton.bin"
		}
	]
}
